# xmcd
#
# Track frame offsets: 
#        150
#        6400
#        27847
#        44607
#        60002
#        80515
#
# Disc length: 1320 seconds
#
# Revision: 1
# Processed by: cddbd v1.5.2PL0 Copyright (c) Steve Scherf et al.
# Submitted via: ExactAudioCopyFreeDBPlugin 1.0
#
DISCID=3f052606
DTITLE=一十三十一 - Fermata
DYEAR=2004
DGENRE=JPop
TTITLE0=三日月のミュー
TTITLE1=Dawn Town
TTITLE2=たぶん
TTITLE3=ああ無情
TTITLE4=渚にて
TTITLE5=Charade
EXTD=
EXTT0=
EXTT1=
EXTT2=
EXTT3=
EXTT4=
EXTT5=
PLAYORDER=
